# xmcd
#
# Track frame offsets:
#	150
#	12267
#	31850
#	48495
#	64167
#	79850
#	94550
#	111017
#	126835
#	147395
#	163320
#	182702
#	200545
#	223295
#	240007
#	258097
#
# Disc length: 3687 seconds
#
# Revision: 1
# Processed by: cddbd v1.5.1PL2 Copyright (c) Steve Scherf et al.
# Submitted via: audiograbber 1.83.01
#
DISCID=db0e6510
DTITLE=Various Artist - Monster Hits 1001
DYEAR=1900
DGENRE=
TTITLE0=Trisha Yearwood - That's What I Like About You
TTITLE1=Reba McEntire and Linda Davis - Does He Love You
TTITLE2=Lorrie Morgan - Five Minutes
TTITLE3=Forester Sisters - Men
TTITLE4=Mary-Chapin Carpenter - I Feel Lucky
TTITLE5=Wynonna - Girls With Guitars
TTITLE6=Pam Tillis - Maybe It Was Memphis
TTITLE7=Kathy Mattea - Eighteen Wheels And A Dozen Roses
TTITLE8=Mary-Chapin Carpenter - Down At The Twist And Shout
TTITLE9=Patty Loveless - Blame It On Your Heart
TTITLE10=Shania Twain - Any Man Of Mine
TTITLE11=Robin Lee - Black Velvet
TTITLE12=Reba McEntire - Fancy
TTITLE13=Lorrie Morgan - Watch Me
TTITLE14=Wynonna - I Saw The Light
TTITLE15=Mary-Chapin Carpenter - He Thinks He'll Keep Her
EXTD=
EXTT0=
EXTT1=
EXTT2=
EXTT3=
EXTT4=
EXTT5=
EXTT6=
EXTT7=
EXTT8=
EXTT9=
EXTT10=
EXTT11=
EXTT12=
EXTT13=
EXTT14=
EXTT15=
PLAYORDER=
